HIERARCHY
ROOT Hips
{
	OFFSET -0.001795 -0.223333 0.028219
	CHANNELS 6 Xposition Yposition Zposition Zrotation Yrotation Xrotation 
	JOINT LeftUpLeg
	{
		OFFSET 0.069520 -0.091406 -0.006815
		CHANNELS 3 Zrotation Yrotation Xrotation
		JOINT LeftLeg
		{
			OFFSET 0.034277 -0.375199 -0.004496
			CHANNELS 3 Zrotation Yrotation Xrotation
			JOINT LeftFoot
			{
				OFFSET -0.013596 -0.397961 -0.043693
				CHANNELS 3 Zrotation Yrotation Xrotation
				JOINT LeftToe
				{
					OFFSET 0.026358 -0.055791 0.119288
					CHANNELS 3 Zrotation Yrotation Xrotation
					End Site
					{
						OFFSET 0.000000 0.000000 0.000000
					}
				}
			}
		}
	}
	JOINT RightUpLeg
	{
		OFFSET -0.067670 -0.090522 -0.004320
		CHANNELS 3 Zrotation Yrotation Xrotation
		JOINT RightLeg
		{
			OFFSET -0.038290 -0.382569 -0.008850
			CHANNELS 3 Zrotation Yrotation Xrotation
			JOINT RightFoot
			{
				OFFSET 0.015774 -0.398415 -0.042312
				CHANNELS 3 Zrotation Yrotation Xrotation
				JOINT RightToe
				{
					OFFSET -0.025372 -0.048144 0.123348
					CHANNELS 3 Zrotation Yrotation Xrotation
					End Site
					{
						OFFSET 0.000000 0.000000 0.000000
					}
				}
			}
		}
	}
	JOINT Spine
	{
		OFFSET -0.002533 0.108963 -0.026696
		CHANNELS 3 Zrotation Yrotation Xrotation
		JOINT Spine1
		{
			OFFSET 0.005487 0.135180 0.001092
			CHANNELS 3 Zrotation Yrotation Xrotation
			JOINT Spine2
			{
				OFFSET 0.001457 0.052922 0.025425
				CHANNELS 3 Zrotation Yrotation Xrotation
				JOINT Neck
				{
					OFFSET -0.002778 0.213870 -0.042857
					CHANNELS 3 Zrotation Yrotation Xrotation
					JOINT Head
					{
						OFFSET 0.005152 0.064970 0.051349
						CHANNELS 3 Zrotation Yrotation Xrotation
						End Site
						{
							OFFSET 0.000000 0.000000 0.000000
						}
					}
				}
				JOINT LeftShoulder
				{
					OFFSET 0.078845 0.121749 -0.034090
					CHANNELS 3 Zrotation Yrotation Xrotation
					JOINT LeftArm
					{
						OFFSET 0.090977 0.030469 -0.008868
						CHANNELS 3 Zrotation Yrotation Xrotation
						JOINT LeftForeArm
						{
							OFFSET 0.259612 -0.012772 -0.027456
							CHANNELS 3 Zrotation Yrotation Xrotation
							JOINT LeftHand
							{
								OFFSET 0.249234 0.008986 -0.001171
								CHANNELS 3 Zrotation Yrotation Xrotation
								End Site
								{
									OFFSET 0.000000 0.000000 0.000000
								}
							}
						}
					}
				}
				JOINT RightShoulder
				{
					OFFSET -0.081759 0.118833 -0.038615
					CHANNELS 3 Zrotation Yrotation Xrotation
					JOINT RightArm
					{
						OFFSET -0.096012 0.032551 -0.009143
						CHANNELS 3 Zrotation Yrotation Xrotation
						JOINT RightForeArm
						{
							OFFSET -0.253742 -0.013329 -0.021401
							CHANNELS 3 Zrotation Yrotation Xrotation
							JOINT RightHand
							{
								OFFSET -0.255298 0.007772 -0.005559
								CHANNELS 3 Zrotation Yrotation Xrotation
								End Site
								{
									OFFSET 0.000000 0.000000 0.000000
								}
							}
						}
					}
				}
			}
		}
	}
}
MOTION
Frames: 5
Frame Time: 0.050000
0.103112 0.943331 0.124660 3.608159 -30.387132 9.685811 0.875937 -0.491312 -22.743109 -3.472423 1.257329 11.646269 12.869836 22.575477 12.136339 0.000000 0.000000 0.000000 -11.453540 3.209474 -29.370954 -0.584111 1.125377 12.887053 3.187377 -3.646083 13.145200 0.000000 0.000000 0.000000 6.565598 -0.815136 24.227595 2.302290 -0.938710 -1.770826 -4.784904 11.345384 10.475310 16.413902 -6.832776 -26.423527 0.000000 0.000000 0.000000 24.038262 -42.144055 6.858377 28.958467 -68.309293 -21.756895 12.733116 5.147790 0.400122 0.000000 0.000000 0.000000 -19.419786 30.563797 6.645925 -4.039267 50.282410 -5.404838 -10.797144 -9.109697 0.796299 0.000000 0.000000 0.000000 
0.117003 0.944372 0.130392 4.009708 -29.622381 9.735811 -0.320182 -0.789323 -22.940109 -3.809988 1.252275 10.859342 12.981990 22.667269 12.757618 0.000000 0.000000 0.000000 -12.934041 3.005829 -29.387887 -1.018171 1.075589 11.999640 3.993737 -2.889340 14.551077 0.000000 0.000000 0.000000 6.567246 -0.863544 24.313720 2.521855 -1.023002 -1.576017 -4.290107 11.875479 10.602803 16.971868 -7.117572 -26.085783 0.000000 0.000000 0.000000 24.707858 -41.774172 6.619688 34.274561 -68.418015 -25.606912 13.998634 5.692637 0.506571 0.000000 0.000000 0.000000 -18.798809 29.922458 6.590307 -3.653420 47.926814 -4.767491 -11.270143 -9.985510 0.912181 0.000000 0.000000 0.000000 
0.129980 0.946405 0.136971 3.960454 -28.890576 10.016320 -1.189873 -1.006742 -22.999158 -3.604119 1.046011 9.302868 12.749186 22.110398 13.625071 0.000000 0.000000 0.000000 -13.789259 2.896170 -29.612348 -1.377944 1.130374 12.063460 4.170442 -2.781288 15.111298 0.000000 0.000000 0.000000 7.193876 -1.049244 24.591035 2.925448 -1.176476 -1.108381 -4.428046 12.432060 9.894517 17.692173 -7.379308 -25.953722 0.000000 0.000000 0.000000 24.865380 -41.367377 6.624234 39.406245 -68.681995 -29.626768 16.098604 6.796746 0.740989 0.000000 0.000000 0.000000 -17.656916 29.201087 6.641892 -4.068176 45.715443 -4.434910 -11.497354 -10.114134 0.959882 0.000000 0.000000 0.000000 
0.140294 0.947993 0.144135 4.024635 -28.052144 10.103223 -2.332658 -1.289080 -22.845980 -3.365397 0.879984 8.118141 11.965931 20.898658 13.816214 0.000000 0.000000 0.000000 -14.703900 2.731408 -29.633919 -2.020136 1.260236 12.360981 5.066343 -1.394800 15.876443 0.000000 0.000000 0.000000 7.426968 -1.163922 24.566677 3.413396 -1.363386 -0.307928 -4.549307 12.850012 9.284376 18.054208 -7.780091 -24.633840 0.000000 0.000000 0.000000 24.072609 -41.395971 6.989480 45.218059 -68.810843 -34.168887 17.727807 7.517103 0.938598 0.000000 0.000000 0.000000 -15.812190 28.746752 6.893730 -4.080410 43.956999 -4.073876 -12.340081 -10.814766 1.125524 0.000000 0.000000 0.000000 
0.147182 0.949406 0.151582 3.975102 -27.003109 10.438229 -3.047288 -1.474415 -22.321713 -3.025330 0.705319 6.833134 11.130390 19.734131 13.508186 0.000000 0.000000 0.000000 -14.986638 2.629662 -29.786671 -2.874546 1.452857 12.788270 5.220514 -1.017592 16.030752 0.000000 0.000000 0.000000 7.654291 -1.309166 23.835901 3.668785 -1.463629 0.179570 -4.727931 12.765882 8.683044 18.566158 -8.332279 -23.288597 0.000000 0.000000 0.000000 24.178966 -41.306122 7.023390 49.865573 -69.258688 -38.020924 18.335100 8.484910 1.111336 0.000000 0.000000 0.000000 -14.016995 28.230811 7.172397 -3.271982 43.877011 -3.752762 -13.247175 -11.812446 1.333103 0.000000 0.000000 0.000000 
